<svg width="13" height="13" viewBox="0 0 13 13" fill="none" xmlns="http://www.w3.org/2000/svg">
<path d="M5.87504 11.75H7.13504C7.61504 11.75 7.92504 11.41 7.83504 10.995L7.63003 10.09H5.38003L5.17504 10.995C5.08504 11.385 5.42504 11.75 5.87504 11.75Z" stroke="white" stroke-linecap="round" stroke-linejoin="round"/>
<path d="M7.63003 10.085L8.49503 9.31501C8.98003 8.88501 9.00003 8.58498 8.61503 8.09998L7.09002 6.16502C6.77002 5.76002 6.24503 5.76002 5.92503 6.16502L4.40003 8.09998C4.01503 8.58498 4.01502 8.90001 4.52002 9.31501L5.38503 10.085" stroke="white" stroke-linecap="round" stroke-linejoin="round"/>
<path d="M6.505 6.06V7.32501" stroke="white" stroke-width="1.5" stroke-linecap="round" stroke-linejoin="round"/>
<path d="M6.76001 3H6.26001C5.98501 3 5.76001 2.775 5.76001 2.5V2C5.76001 1.725 5.98501 1.5 6.26001 1.5H6.76001C7.03501 1.5 7.26001 1.725 7.26001 2V2.5C7.26001 2.775 7.03501 3 6.76001 3Z" stroke="white" stroke-linecap="round" stroke-linejoin="round"/>
<path d="M2.13501 7.58502H2.63501C2.91001 7.58502 3.13501 7.36002 3.13501 7.08502V6.58502C3.13501 6.31002 2.91001 6.08499 2.63501 6.08499H2.13501C1.86001 6.08499 1.63501 6.31002 1.63501 6.58502V7.08502C1.63501 7.36002 1.86001 7.58502 2.13501 7.58502Z" stroke="white" stroke-linecap="round" stroke-linejoin="round"/>
<path d="M10.865 7.58502H10.365C10.09 7.58502 9.86499 7.36002 9.86499 7.08502V6.58502C9.86499 6.31002 10.09 6.08499 10.365 6.08499H10.865C11.14 6.08499 11.365 6.31002 11.365 6.58502V7.08502C11.365 7.36002 11.14 7.58502 10.865 7.58502Z" stroke="white" stroke-linecap="round" stroke-linejoin="round"/>
<path d="M5.76 2.28C3.855 2.505 2.375 4.11999 2.375 6.08499" stroke="white" stroke-linecap="round" stroke-linejoin="round"/>
<path d="M10.625 6.08499C10.625 4.12499 9.15501 2.515 7.26001 2.28" stroke="white" stroke-linecap="round" stroke-linejoin="round"/>
</svg>
