<svg width="16" height="16" viewBox="0 0 16 16" fill="none" xmlns="http://www.w3.org/2000/svg">
<path d="M12.22 1.35341C12.46 1.35341 12.7066 1.40675 12.9466 1.52008C13.1866 1.63341 13.4133 1.78008 13.6266 1.97341C13.9866 2.30008 14.2466 2.66008 14.4133 3.06675C14.58 3.46675 14.6666 3.90008 14.6666 4.36675C14.6666 5.04675 14.5066 5.77341 14.18 6.54008C13.8533 7.30675 13.4133 8.07341 12.86 8.83341C12.3 9.60008 11.68 10.3267 10.9933 11.0201C10.3 11.7067 9.57331 12.3267 8.81331 12.8801C8.05331 13.4267 7.29331 13.8667 6.53998 14.1867C5.77998 14.5067 5.05331 14.6667 4.35998 14.6667C3.90665 14.6667 3.47331 14.5867 3.07331 14.4267C2.66665 14.2667 2.29331 14.0134 1.95998 13.6601C1.53998 13.2334 1.33331 12.7667 1.33331 12.2734C1.33331 12.0867 1.37331 11.9001 1.45331 11.7334C1.53331 11.5601 1.65331 11.4067 1.82665 11.2867L4.00665 9.74008C4.17331 9.62008 4.32665 9.53341 4.47331 9.47341C4.61331 9.41341 4.75331 9.38008 4.87998 9.38008C5.03998 9.38008 5.19998 9.42675 5.35331 9.52008C5.50665 9.60675 5.66665 9.73341 5.82665 9.89341L6.35331 10.4001C6.42665 10.4734 6.51331 10.5067 6.61998 10.5067C6.67331 10.5067 6.71998 10.5001 6.77331 10.4867C6.82665 10.4667 6.86665 10.4467 6.90665 10.4334C7.12665 10.3134 7.41331 10.1067 7.75998 9.81341C8.10665 9.51341 8.45998 9.19341 8.81331 8.84675C9.16665 8.48675 9.49331 8.14008 9.79331 7.78675C10.0866 7.44008 10.2866 7.15341 10.4066 6.92675C10.42 6.89341 10.44 6.85341 10.46 6.80675C10.48 6.75341 10.4866 6.70008 10.4866 6.64008C10.4866 6.52675 10.4466 6.44008 10.3733 6.36675L9.87331 5.86008C9.70665 5.69341 9.57998 5.53341 9.49998 5.38008C9.40665 5.22675 9.35998 5.07341 9.35998 4.90675C9.35998 4.78008 9.38665 4.64675 9.44665 4.50008C9.50665 4.35341 9.59331 4.20008 9.70665 4.03341L11.2733 1.82675C11.3933 1.65341 11.5333 1.53341 11.7 1.46008C11.8666 1.39341 12.0333 1.35341 12.22 1.35341Z" stroke="#E3E3E3" stroke-miterlimit="10"/>
</svg>
