<svg width="16" height="16" viewBox="0 0 16 16" fill="none" xmlns="http://www.w3.org/2000/svg">
<path d="M8.10667 7.24665C8.04 7.23998 7.96 7.23998 7.88667 7.24665C6.3 7.19331 5.04 5.89331 5.04 4.29331C5.04 2.65998 6.36 1.33331 8 1.33331C9.63333 1.33331 10.96 2.65998 10.96 4.29331C10.9533 5.89331 9.69333 7.19331 8.10667 7.24665Z" stroke="#BABABA" stroke-linecap="round" stroke-linejoin="round"/>
<path d="M4.77333 9.70669C3.16 10.7867 3.16 12.5467 4.77333 13.62C6.60666 14.8467 9.61333 14.8467 11.4467 13.62C13.06 12.54 13.06 10.78 11.4467 9.70669C9.62 8.48669 6.61333 8.48669 4.77333 9.70669Z" stroke="#BABABA" stroke-linecap="round" stroke-linejoin="round"/>
</svg>
